<svg 
<?xml version="1.0" encoding="UTF-8"?>
<svg id="Camada_1" data-name="Camada 1" xmlns="http://www.w3.org/2000/svg" viewBox="0 0 45.9 40.42">
  <g>
    <path d="m16.2,15.43c2.48,1.43,4.75,3.19,6.75,5.24,0,0,0,0,0,0,2-2.04,4.26-3.8,6.74-5.23-5.37-.73-4.51-5.15-4.51-5.15,2.95-1.67,2.63-5.44,2.63-5.44-1.63,2.82-10.6,1.26-9.54,7.42,1.03-2.31,3.79-.6,1.8,1.39-1.33,1.33-3.87,1.78-3.87,1.78Z" style="fill: #3c2668;"/>
    <path d="m44.61,4.08c-.34-.59-.83-1.08-1.42-1.42.5,1.86-.31,3.82-1.98,4.78l-5.78,3.34c-1.52.88-2.26,2.66-1.8,4.36-3.92,2.26-7.51,5.05-10.67,8.28-3.16-3.24-6.75-6.02-10.67-8.28.45-1.69-.29-3.48-1.8-4.36l-5.78-3.34c-1.67-.96-2.48-2.92-1.98-4.78-.59.34-1.08.83-1.42,1.42-1.07,1.85-.43,4.22,1.42,5.29l4.86,2.81c1.67.96,2.48,2.92,1.98,4.78,3.06,1.77,5.86,3.94,8.34,6.47,1.86,1.86,2.24,4.73.92,7.01-.25.44-.56.84-.92,1.2-1.27-1.32-2.72-2.45-4.3-3.36-1.48-.86-3.07-1.51-4.73-1.96l9.33,9.33c1.21-1.21,2.25-2.57,3.1-4.05,0,0-.05,2.71-1.66,5.49l3.31,3.31,3.31-3.31c-1.61-2.78-1.66-5.49-1.66-5.49.85,1.48,1.9,2.84,3.1,4.05l9.33-9.33c-1.65.44-3.24,1.1-4.73,1.96-1.58.91-3.03,2.05-4.3,3.36-.36-.36-.67-.76-.92-1.2-1.31-2.28-.94-5.15.92-7.01,2.47-2.53,5.27-4.7,8.34-6.47-.5-1.86.31-3.82,1.98-4.78l4.86-2.81c1.85-1.07,2.49-3.44,1.42-5.29Z" style="fill: #3c2668;"/>
  </g>
  <g>
    <path d="m27.81,4.84c-1.63,2.82-10.6,1.26-9.54,7.42.14-4.72,7.34-.32,9.54-7.42Z" style="fill: #221e48;"/>
    <path d="m44.61,4.08c-.34-.59-.83-1.08-1.42-1.42,0,0,2.5,3.62-.81,5.53-3.3,1.91-8.48,3.57-7.33,7.84-7.25,4.08-15.09,10.05-7.22,17.58,0,0,3.93-4.45,9.2-7.27-1.65.44-3.24,1.1-4.73,1.96-1.58.91-3.03,2.05-4.3,3.36-.36-.36-.67-.76-.92-1.2-1.31-2.28-.94-5.15.92-7.01,2.47-2.53,5.27-4.7,8.34-6.47-.5-1.86.31-3.82,1.98-4.78l4.86-2.81c1.85-1.07,2.49-3.44,1.42-5.29Z" style="fill: #221e48;"/>
    <path d="m10.84,16.03c1.15-4.27-4.03-5.93-7.33-7.84-3.3-1.91-.81-5.53-.81-5.53-.59.34-1.08.83-1.42,1.42-1.07,1.85-.43,4.22,1.42,5.29l4.86,2.81c1.67.96,2.48,2.92,1.98,4.78,3.06,1.77,5.86,3.94,8.34,6.47,1.86,1.86,2.24,4.73.92,7.01-.25.44-.56.84-.92,1.2-1.27-1.32-2.72-2.45-4.3-3.36-1.48-.86-3.07-1.51-4.73-1.96,5.28,2.83,9.2,7.27,9.2,7.27,7.87-7.53.03-13.5-7.22-17.58Z" style="fill: #221e48;"/>
  </g>
  <g>
    <path d="m13.39,8.12l-5.78-3.34c-1.67-.96-2.48-2.92-1.98-4.78-.59.34-1.08.83-1.42,1.42-1.07,1.85-.43,4.22,1.42,5.29l5.78,3.34c1.67.96,2.48,2.92,1.98,4.78.59-.34,1.08-.83,1.42-1.42,1.07-1.85.43-4.22-1.42-5.29Z" style="fill: #3c2668;"/>
    <path d="m41.69,1.42c-.34-.59-.83-1.08-1.42-1.42.5,1.86-.31,3.82-1.98,4.78l-5.78,3.34c-1.85,1.07-2.49,3.44-1.42,5.29.34.59.83,1.08,1.42,1.42-.5-1.86.31-3.82,1.98-4.78l5.78-3.34c1.85-1.07,2.49-3.44,1.42-5.29Z" style="fill: #3c2668;"/>
  </g>
  <g>
    <path d="m5.56,4.82c-1.91-2.64.07-4.82.07-4.82-.59.34-1.08.83-1.42,1.42-1.07,1.85-.43,4.22,1.42,5.29l5.78,3.34c1.67.96,2.48,2.92,1.98,4.78,0,0,1.42-1.42.4-4.07-1.01-2.66-6.33-3.3-8.24-5.94Z" style="fill: #221e48;"/>
    <path d="m41.69,1.42c-.34-.59-.83-1.08-1.42-1.42,0,0,1.99,2.17.07,4.82-1.91,2.64-7.23,3.29-8.24,5.94-1.01,2.66.4,4.07.4,4.07-.5-1.86.31-3.82,1.98-4.78l5.78-3.34c1.85-1.07,2.49-3.44,1.42-5.29Z" style="fill: #221e48;"/>
  </g>
  <g>
    <path d="m8.31,17.67c.67-1.78-.04-3.77-1.69-4.72l-5.36-3.09c-.55-.32-.95-.84-1.11-1.45-.53,1.98.33,4.07,2.11,5.09l1.46.84c1.67.96,2.48,2.92,1.98,4.78,4.23,2.44,8.09,5.46,11.48,8.97.41-1.61-.05-3.32-1.23-4.49-2.27-2.32-4.84-4.32-7.65-5.94Z" style="fill: #221e48;"/>
    <path d="m45.75,8.4c-.16.61-.56,1.13-1.11,1.45l-5.36,3.09c-1.64.95-2.36,2.95-1.69,4.72-2.81,1.62-5.38,3.62-7.65,5.94-1.17,1.17-1.64,2.88-1.23,4.49,3.39-3.51,7.25-6.53,11.48-8.97-.5-1.86.31-3.82,1.98-4.78l1.46-.84c1.77-1.02,2.64-3.11,2.11-5.09Z" style="fill: #221e48;"/>
    <path d="m18.27,12.26c1.03-2.31,3.79-.6,1.8,1.39-1.33,1.33-3.87,1.78-3.87,1.78,2.48,1.43,4.75,3.19,6.75,5.24,3.63-12.64-4.26-11.01-4.68-8.41Z" style="fill: #221e48;"/>
  </g>
  <g>
    <path d="m6.94,18.29s1.02-3.68-2.99-5.45C-.06,11.07.15,8.4.15,8.4c-.53,1.98.33,4.07,2.11,5.09l1.46.84c1.67.96,2.48,2.92,1.98,4.78,4.23,2.44,8.09,5.46,11.48,8.97-.94-5-10.24-9.8-10.24-9.8Z" style="fill: #5a2582;"/>
    <path d="m45.75,8.4s.21,2.67-3.8,4.44c-4.01,1.77-2.99,5.45-2.99,5.45,0,0-9.31,4.8-10.24,9.8,3.39-3.51,7.25-6.53,11.48-8.97-.5-1.86.31-3.82,1.98-4.78l1.46-.84c1.77-1.02,2.64-3.11,2.11-5.09Z" style="fill: #5a2582;"/>
  </g>
</svg>="http://www.w3.org/2000/svg" fill="none" viewBox="0 0 394 80"><path fill="#000" d="M262 0h68.5v12.7h-27.2v66.6h-13.6V12.7H262V0ZM149 0v12.7H94v20.4h44.3v12.6H94v21h55v12.6H80.5V0h68.7zm34.3 0h-17.8l63.8 79.4h17.9l-32-39.7 32-39.6h-17.9l-23 28.6-23-28.6zm18.3 56.7-9-11-27.1 33.7h17.8l18.3-22.7z"/><path fill="#000" d="M81 79.3 17 0H0v79.3h13.6V17l50.2 62.3H81Zm252.6-.4c-1 0-1.8-.4-2.5-1s-1.1-1.6-1.1-2.6.3-1.8 1-2.5 1.6-1 2.6-1 1.8.3 2.5 1a3.4 3.4 0 0 1 .6 4.3 3.7 3.7 0 0 1-3 1.8zm23.2-33.5h6v23.3c0 2.1-.4 4-1.3 5.5a9.1 9.1 0 0 1-3.8 3.5c-1.6.8-3.5 1.3-5.7 1.3-2 0-3.7-.4-5.3-1s-2.8-1.8-3.7-3.2c-.9-1.3-1.4-3-1.4-5h6c.1.8.3 1.6.7 2.2s1 1.2 1.6 1.5c.7.4 1.5.5 2.4.5 1 0 1.8-.2 2.4-.6a4 4 0 0 0 1.6-1.8c.3-.8.5-1.8.5-3V45.5zm30.9 9.1a4.4 4.4 0 0 0-2-3.3 7.5 7.5 0 0 0-4.3-1.1c-1.3 0-2.4.2-3.3.5-.9.4-1.6 1-2 1.6a3.5 3.5 0 0 0-.3 4c.3.5.7.9 1.3 1.2l1.8 1 2 .5 3.2.8c1.3.3 2.5.7 3.7 1.2a13 13 0 0 1 3.2 1.8 8.1 8.1 0 0 1 3 6.5c0 2-.5 3.7-1.5 5.1a10 10 0 0 1-4.4 3.5c-1.8.8-4.1 1.2-6.8 1.2-2.6 0-4.9-.4-6.8-1.2-2-.8-3.4-2-4.5-3.5a10 10 0 0 1-1.7-5.6h6a5 5 0 0 0 3.5 4.6c1 .4 2.2.6 3.4.6 1.3 0 2.5-.2 3.5-.6 1-.4 1.8-1 2.4-1.7a4 4 0 0 0 .8-2.4c0-.9-.2-1.6-.7-2.2a11 11 0 0 0-2.1-1.4l-3.2-1-3.8-1c-2.8-.7-5-1.7-6.6-3.2a7.2 7.2 0 0 1-2.4-5.7 8 8 0 0 1 1.7-5 10 10 0 0 1 4.3-3.5c2-.8 4-1.2 6.4-1.2 2.3 0 4.4.4 6.2 1.2 1.8.8 3.2 2 4.3 3.4 1 1.4 1.5 3 1.5 5h-5.8z"/></svg>