<?xml version="1.0" encoding="UTF-8"?>
<svg id="Camada_2" data-name="Camada 2" xmlns="http://www.w3.org/2000/svg" viewBox="0 0 724.8 184.74">
  <g id="Camada_1-2" data-name="Camada 1">
    <g>
      <g>
        <path d="m141.7,72.81c7.52,4.34,14.42,9.7,20.49,15.91,0,0,0,0,0,0,6.06-6.2,12.95-11.55,20.47-15.9-16.29-2.22-13.69-15.65-13.69-15.65,8.95-5.07,7.97-16.52,7.97-16.52-4.94,8.55-32.17,3.84-28.97,22.53,3.14-7.01,11.51-1.83,5.46,4.21-4.04,4.04-11.74,5.41-11.74,5.41Z" style="fill: #fff;"/>
        <path d="m227.97,38.35c-1.03-1.79-2.52-3.27-4.31-4.31,1.51,5.65-.96,11.61-6.02,14.53l-17.57,10.14c-4.61,2.66-6.86,8.09-5.48,13.23-11.9,6.87-22.8,15.33-32.4,25.16-9.6-9.82-20.51-18.29-32.4-25.16,1.38-5.14-.87-10.57-5.48-13.23l-17.57-10.14c-5.06-2.92-7.53-8.88-6.02-14.53-1.79,1.03-3.27,2.52-4.31,4.31-3.25,5.63-1.32,12.82,4.31,16.07l14.77,8.53c5.06,2.92,7.53,8.88,6.02,14.53,9.29,5.37,17.81,11.98,25.31,19.65,5.64,5.64,6.79,14.38,2.8,21.29-.77,1.33-1.71,2.56-2.8,3.65-3.86-3.99-8.25-7.43-13.06-10.2-4.5-2.6-9.33-4.6-14.35-5.94l28.34,28.34c3.67-3.67,6.84-7.8,9.43-12.29,0,0-.16,8.24-5.03,16.69l10.04,10.04,10.04-10.04c-4.87-8.44-5.03-16.69-5.03-16.69,2.59,4.49,5.76,8.62,9.43,12.29l28.34-28.34c-5.02,1.35-9.85,3.34-14.35,5.94-4.81,2.78-9.2,6.21-13.06,10.2-1.09-1.09-2.03-2.32-2.8-3.65-3.99-6.91-2.84-15.64,2.8-21.29,7.5-7.67,16.02-14.28,25.31-19.65-1.51-5.65.96-11.61,6.02-14.53l14.77-8.53c5.63-3.25,7.55-10.44,4.31-16.07Z" style="fill: #fff;"/>
      </g>
      <g>
        <path d="m176.94,40.66c-4.94,8.55-32.17,3.84-28.97,22.53.43-14.34,22.3-.96,28.97-22.53Z" style="fill: #fff;"/>
        <path d="m227.97,38.35c-1.03-1.79-2.52-3.27-4.31-4.31,0,0,7.58,10.99-2.45,16.78-10.03,5.79-25.74,10.83-22.26,23.81-22.02,12.38-45.82,30.52-21.93,53.37,0,0,11.92-13.51,27.94-22.09-5.02,1.35-9.85,3.34-14.35,5.94-4.81,2.78-9.2,6.21-13.06,10.2-1.09-1.09-2.03-2.32-2.8-3.65-3.99-6.91-2.84-15.64,2.8-21.29,7.5-7.67,16.02-14.28,25.31-19.65-1.51-5.65.96-11.61,6.02-14.53l14.77-8.53c5.63-3.25,7.55-10.44,4.31-16.07Z" style="fill: #fff;"/>
        <path d="m125.43,74.63c3.48-12.98-12.23-18.02-22.26-23.81-10.03-5.79-2.45-16.78-2.45-16.78-1.79,1.03-3.27,2.52-4.31,4.31-3.25,5.63-1.32,12.82,4.31,16.07l14.77,8.53c5.06,2.92,7.53,8.88,6.02,14.53,9.29,5.37,17.81,11.98,25.31,19.65,5.64,5.64,6.79,14.38,2.8,21.29-.77,1.33-1.71,2.56-2.8,3.65-3.86-3.99-8.25-7.43-13.06-10.2-4.5-2.6-9.33-4.6-14.35-5.94,16.02,8.58,27.94,22.09,27.94,22.09,23.9-22.86.1-40.99-21.93-53.37Z" style="fill: #fff;"/>
      </g>
      <g>
        <path d="m133.17,50.63l-17.57-10.14c-5.06-2.92-7.53-8.88-6.02-14.53-1.79,1.03-3.27,2.52-4.31,4.31-3.25,5.63-1.32,12.82,4.31,16.07l17.57,10.14c5.06,2.92,7.53,8.88,6.02,14.53,1.79-1.03,3.27-2.52,4.31-4.31,3.25-5.63,1.32-12.82-4.31-16.07Z" style="fill: #fff;"/>
        <path d="m219.1,30.26c-1.03-1.79-2.52-3.27-4.31-4.31,1.51,5.65-.96,11.61-6.02,14.53l-17.57,10.14c-5.63,3.25-7.55,10.44-4.31,16.07,1.03,1.79,2.52,3.27,4.31,4.31-1.51-5.65.96-11.61,6.02-14.53l17.57-10.14c5.63-3.25,7.55-10.44,4.31-16.07Z" style="fill: #fff;"/>
      </g>
      <g>
        <path d="m109.37,40.58c-5.81-8.03.22-14.62.22-14.62-1.79,1.03-3.27,2.52-4.31,4.31-3.25,5.63-1.32,12.82,4.31,16.07l17.57,10.14c5.06,2.92,7.53,8.88,6.02,14.53,0,0,4.31-4.31,1.23-12.37-3.08-8.07-19.21-10.02-25.03-18.05Z" style="fill: #fff;"/>
        <path d="m219.1,30.26c-1.03-1.79-2.52-3.27-4.31-4.31,0,0,6.03,6.6.22,14.62-5.81,8.03-21.95,9.98-25.03,18.05-3.08,8.06,1.23,12.37,1.23,12.37-1.51-5.65.96-11.61,6.02-14.53l17.57-10.14c5.63-3.25,7.55-10.44,4.31-16.07Z" style="fill: #fff;"/>
      </g>
      <g>
        <path d="m117.74,79.6c2.04-5.39-.13-11.46-5.12-14.34l-16.27-9.39c-1.66-.96-2.87-2.54-3.37-4.39-1.61,6.01,1.02,12.35,6.4,15.46l4.42,2.55c5.06,2.92,7.53,8.88,6.02,14.53,12.83,7.41,24.57,16.58,34.86,27.24,1.26-4.88-.16-10.07-3.72-13.63-6.88-7.04-14.7-13.11-23.22-18.03Z" style="fill: #fff;"/>
        <path d="m231.41,51.47c-.5,1.85-1.71,3.43-3.37,4.39l-16.27,9.39c-4.99,2.88-7.16,8.95-5.12,14.34-8.53,4.92-16.34,10.99-23.22,18.03-3.57,3.57-4.98,8.75-3.72,13.63,10.29-10.66,22.03-19.83,34.86-27.24-1.51-5.65.96-11.61,6.02-14.53l4.42-2.55c5.39-3.11,8.01-9.45,6.4-15.46Z" style="fill: #fff;"/>
        <path d="m147.97,63.18c3.14-7.01,11.51-1.83,5.46,4.21-4.04,4.04-11.74,5.41-11.74,5.41,7.52,4.34,14.42,9.7,20.49,15.91,11.02-38.38-12.94-33.45-14.22-25.53Z" style="fill: #fff;"/>
      </g>
      <g>
        <path d="m113.58,81.5s3.1-11.18-9.08-16.55c-12.18-5.37-11.53-13.47-11.53-13.47-1.61,6.01,1.02,12.35,6.4,15.46l4.42,2.55c5.06,2.92,7.53,8.88,6.02,14.53,12.83,7.41,24.57,16.58,34.86,27.24-2.84-15.19-31.1-29.76-31.1-29.76Z" style="fill: #fff;"/>
        <path d="m231.41,51.47s.65,8.1-11.53,13.47c-12.18,5.37-9.08,16.55-9.08,16.55,0,0-28.26,14.57-31.1,29.76,10.29-10.66,22.03-19.83,34.86-27.24-1.51-5.65.96-11.61,6.02-14.53l4.42-2.55c5.39-3.11,8.01-9.45,6.4-15.46Z" style="fill: #fff;"/>
      </g>
      <path d="m89.58,64.69l-23.61,55.64-1.25,8.42h-2.7l.83-8.42L46.33,27.55H0l29.71,122.8h62.02l22.14-45.43,4.72-10.71-12.49-6.75s.56-11.77-8.7-14.26-7.82-8.51-7.82-8.51Z" style="fill: #fff;"/>
      <g>
        <path d="m284.74,143.14c-18.83,0-32.82-3.77-41.97-11.31-9.16-7.54-13.74-18.91-13.74-34.11,0-4.08.28-8.45.85-13.1,2.61-21.49,10.21-36.53,22.79-45.12s28.89-12.89,48.91-12.89c18.09,0,32.14,3.4,42.14,10.21,10.01,6.8,15.01,16.36,15.01,28.66,0,1.25-.06,2.52-.17,3.83h-36.66v-1.36c0-7.03-1.8-11.64-5.4-13.82-3.6-2.18-9.54-3.27-17.82-3.27s-15.64,1.89-21.05,5.66c-5.42,3.77-9.06,13.42-10.93,28.96-.4,3.4-.6,6.52-.6,9.36,0,7.82,1.9,13.79,5.7,17.9,3.8,4.11,10.21,6.17,19.22,6.17,8.45,0,14.7-1.3,18.75-3.91,4.05-2.61,6.73-7.03,8.04-13.27l1.28-.6h-24.16l2.55-20.75h59.71l-7.65,62.09h-23.22l1.53-13.18,4.93-9.36-1.87-1.28-5.19,9.19c-7.2,10.21-20.87,15.31-41,15.31Z" style="fill: #fff;"/>
        <path d="m370.9,27.64h36.57l-5.53,44.82h49.08l5.53-44.82h36.57l-14.12,114.82h-36.57l5.27-42.61h-49.08l-5.27,42.61h-36.57l14.12-114.82Z" style="fill: #fff;"/>
        <path d="m500.35,27.64h103l-3.49,27.9h-66.26l-1.79,15.05h63.45l-3.4,28.07h-63.54l-1.96,15.9h66.26l-3.4,27.9h-102.91l14.03-114.82Z" style="fill: #fff;"/>
        <path d="m610.15,27.64h77.99c14,0,23.62,3.23,28.83,9.7,5.22,6.46,7.83,13.95,7.83,22.45,0,2.1-.14,4.28-.43,6.55-1.42,11.4-6.04,20.5-13.86,27.3-6.29,5.5-14.8,8.76-25.52,9.78l.77,1.87,13.78-2.13,15.22,39.29h-39.89l-16.84-38.61h-20.5l-4.76,38.61h-36.74l14.12-114.82Zm61.32,52.99c4.59,0,8.31-1.23,11.14-3.7,2.83-2.47,4.51-5.85,5.02-10.16.11-.74.17-1.45.17-2.13,0-3-.99-5.75-2.98-8.25-1.99-2.49-5.27-3.74-9.87-3.74h-31.21l-3.49,27.98h31.21Z" style="fill: #fff;"/>
      </g>
    </g>
  </g>
</svg>